<svg width="38" height="38" viewBox="0 0 38 38" fill="none" xmlns="http://www.w3.org/2000/svg">
<path d="M34.3794 15.8541C34.7802 15.8429 35.1792 15.9122 35.5528 16.0579C35.9264 16.2036 36.267 16.4227 36.5544 16.7023C36.8419 16.9819 37.0704 17.3162 37.2264 17.6856C37.3824 18.055 37.4628 18.4519 37.4628 18.8529C37.4628 19.2539 37.3824 19.6508 37.2264 20.0202C37.0704 20.3896 36.8419 20.724 36.5544 21.0035C36.267 21.2831 35.9264 21.5022 35.5528 21.6479C35.1792 21.7936 34.7802 21.8629 34.3794 21.8518L21.9485 21.8518C21.932 21.8517 21.9157 21.855 21.9005 21.8612C21.8853 21.8675 21.8715 21.8767 21.8599 21.8884C21.8483 21.9 21.8391 21.9138 21.8328 21.929C21.8265 21.9442 21.8233 21.9605 21.8233 21.9769L21.8233 34.4079C21.8266 34.8039 21.7514 35.1966 21.6021 35.5634C21.4529 35.9302 21.2324 36.2638 20.9536 36.545C20.6747 36.8262 20.343 37.0495 19.9774 37.2018C19.6119 37.3541 19.2198 37.4326 18.8237 37.4326C18.4277 37.4327 18.0356 37.3543 17.67 37.2021C17.3044 37.0498 16.9726 36.8267 16.6937 36.5455C16.4148 36.2644 16.1943 35.9308 16.0449 35.5641C15.8956 35.1973 15.8203 34.8046 15.8235 34.4086L15.8235 21.9776C15.8235 21.9612 15.8203 21.9449 15.814 21.9297C15.8077 21.9145 15.7985 21.9007 15.7869 21.8891C15.7753 21.8774 15.7614 21.8682 15.7463 21.8619C15.7311 21.8557 15.7148 21.8524 15.6983 21.8525H3.2674C2.87139 21.8557 2.47865 21.7806 2.11184 21.6313C1.74503 21.482 1.4114 21.2616 1.1302 20.9828C0.849001 20.7039 0.625794 20.3721 0.473456 20.0066C0.321117 19.641 0.242662 19.2489 0.242616 18.8529C0.242569 18.4569 0.320932 18.0648 0.473184 17.6992C0.625436 17.3336 0.848564 17.0018 1.1297 16.7229C1.41083 16.444 1.74441 16.2235 2.11119 16.0741C2.47796 15.9247 2.87068 15.8495 3.26669 15.8527L15.6976 15.8527C15.7141 15.8527 15.7304 15.8495 15.7455 15.8432C15.7607 15.8369 15.7745 15.8277 15.7862 15.816C15.7978 15.8044 15.807 15.7906 15.8133 15.7754C15.8196 15.7602 15.8228 15.7439 15.8228 15.7275L15.8228 3.29656C15.8291 2.50517 16.1479 1.74835 16.7098 1.19095C17.2716 0.63355 18.0309 0.320733 18.8223 0.32064C19.6138 0.320547 20.3731 0.633184 20.9351 1.19045C21.4971 1.74772 21.816 2.50447 21.8226 3.29586L21.8226 15.7268C21.8226 15.7432 21.8258 15.7595 21.8321 15.7747C21.8384 15.7899 21.8476 15.8037 21.8592 15.8153C21.8708 15.827 21.8846 15.8362 21.8998 15.8425C21.915 15.8488 21.9313 15.852 21.9477 15.852L34.3787 15.852L34.3794 15.8541Z" fill="#ED6A5A"/>
</svg>
