<svg width="26" height="26" viewBox="0 0 26 26" fill="none" xmlns="http://www.w3.org/2000/svg">
<path d="M14.8812 22.2365C12.4142 22.236 10.0183 21.4102 8.07505 19.8905L1.96526 26L0 24.0349L6.1098 17.9254C4.5893 15.982 3.76293 13.5857 3.76234 11.1182C3.76234 4.98792 8.75052 0 14.8812 0C21.0118 0 26 4.98792 26 11.1182C26 17.2486 21.0118 22.2365 14.8812 22.2365ZM14.8812 2.77956C10.2821 2.77956 6.54204 6.51946 6.54204 11.1182C6.54204 15.717 10.2821 19.4569 14.8812 19.4569C19.4802 19.4569 23.2203 15.717 23.2203 11.1182C23.2203 6.51946 19.4802 2.77956 14.8812 2.77956Z" fill="#555358"/>
</svg>
